<svg width="20" height="20" viewBox="0 0 20 20" fill="none" xmlns="http://www.w3.org/2000/svg">
<g clip-path="url(#clip0_2001_3436)">
<path fill-rule="evenodd" clip-rule="evenodd" d="M0 0.00244141H20V1.54092H0V0.00244141ZM0 3.07939H20V4.61787H0V3.07939ZM0 6.15635H20V7.69482H0V6.15635ZM0 9.2333H20V10.7718H0V9.2333ZM0 12.3103H20V13.8487H0V12.3103ZM0 15.3872H20V16.9257H0V15.3872ZM0 18.4642H20V20.0026H0V18.4642Z" fill="#BD3D44"/>
<path fill-rule="evenodd" clip-rule="evenodd" d="M0 1.53931H20V3.07778H0V1.53931ZM0 4.61626H20V6.15474H0V4.61626ZM0 7.69321H20V9.23169H0V7.69321ZM0 10.7702H20V12.3086H0V10.7702ZM0 13.8471H20V15.3856H0V13.8471ZM0 16.9241H20V18.4625H0V16.9241Z" fill="white"/>
<path fill-rule="evenodd" clip-rule="evenodd" d="M-2.8125 0.00268555H12.3877V10.772H-2.8125V0.00268555Z" fill="#192F5D"/>
<path fill-rule="evenodd" clip-rule="evenodd" d="M-1.5511 0.463989L-1.39728 0.894731H-0.966494L-1.32036 1.15629L-1.18188 1.57168L-1.5511 1.31012L-1.88958 1.57168L-1.7511 1.15629L-2.12036 0.894731H-1.65876L-1.5511 0.463989ZM0.987373 0.463989L1.12585 0.894731H1.57198L1.20276 1.15629L1.35659 1.57168L0.987373 1.31012L0.618154 1.57168L0.771982 1.15629L0.402764 0.894731H0.848896L0.987373 0.463989ZM3.52585 0.463989L3.66433 0.894731H4.11046L3.74124 1.15629L3.89511 1.57168L3.52585 1.31012L3.15663 1.57168L3.31046 1.15629L2.94124 0.894731H3.38741L3.52585 0.463989ZM6.04897 0.463989L6.2028 0.894731H6.63358L6.27972 1.15629L6.41819 1.57168L6.04897 1.31012L5.69511 1.57168L5.83358 1.15629L5.46433 0.894731H5.92589L6.04897 0.463989ZM8.58745 0.463989L8.72589 0.894731H9.17206L8.80284 1.15629L8.95667 1.57168L8.57206 1.31012L8.21819 1.57168L8.35667 1.15629L7.98745 0.894731H8.43358L8.58745 0.463989ZM11.1259 0.463989L11.2644 0.894731H11.7105L11.3413 1.15629L11.4951 1.57168L11.1259 1.31012L10.7567 1.57168L10.9105 1.15629L10.5413 0.894731H10.9874L11.1259 0.463989ZM-0.27419 1.5409L-0.135713 1.97168H0.310459L-0.058799 2.23321L0.0950683 2.6486L-0.27419 2.38708L-0.643408 2.6486L-0.48958 2.23321L-0.858799 1.97168H-0.412627L-0.27419 1.5409ZM2.24893 1.5409L2.40276 1.97168H2.83354L2.47968 2.23321L2.61815 2.6486L2.24893 2.38708L1.89507 2.6486L2.03354 2.23321L1.66429 1.97168H2.12585L2.24893 1.5409ZM4.78741 1.5409L4.92589 1.97168H5.37202L5.0028 2.23321L5.15663 2.6486L4.78741 2.38708L4.41815 2.6486L4.57202 2.23321L4.2028 1.97168H4.64894L4.78741 1.5409ZM7.32589 1.5409L7.46437 1.97168H7.9105L7.54128 2.23321L7.69515 2.6486L7.32589 2.38708L6.95667 2.6486L7.1105 2.23321L6.74128 1.97168H7.18745L7.32589 1.5409ZM9.84901 1.5409L10.0028 1.97168H10.4182L10.0644 2.23321L10.2028 2.6486L9.83362 2.38708L9.47976 2.6486L9.61823 2.23321L9.24897 1.97168H9.71054L9.84901 1.5409ZM-1.53575 2.61786L-1.41267 3.0486H-0.951104L-1.32036 3.31016L-1.18188 3.72555L-1.5511 3.46399L-1.88958 3.72555L-1.7511 3.31016L-2.12036 3.0486H-1.65876L-1.53575 2.61786ZM0.987373 2.61786L1.12585 3.0486H1.57198L1.21815 3.31016L1.35659 3.72555L0.987373 3.46399L0.633506 3.72555L0.771982 3.31016L0.402764 3.0486H0.848896L0.987373 2.61786ZM3.52585 2.61786L3.66433 3.0486H4.11046L3.74124 3.31016L3.89511 3.72555L3.52585 3.46399L3.15663 3.72555L3.31046 3.31016L2.94124 3.0486H3.38741L3.52585 2.61786ZM6.04897 2.61786L6.2028 3.0486H6.63358L6.27972 3.31016L6.41819 3.72555L6.04897 3.46399L5.69511 3.72555L5.83358 3.31016L5.46433 3.0486H5.92589L6.04897 2.61786ZM8.58745 2.61786L8.72589 3.0486H9.17206L8.81823 3.31016L8.95667 3.72555L8.58745 3.46399L8.23358 3.72555L8.37206 3.31016L8.00284 3.0486H8.44897L8.58745 2.61786ZM11.1259 2.61786L11.2644 3.0486H11.7105L11.3413 3.31016L11.4951 3.72555L11.1259 3.46399L10.7567 3.72555L10.9105 3.31016L10.5413 3.0486H10.9874L11.1259 2.61786ZM-0.27419 3.69473L-0.135713 4.12551H0.310459L-0.058799 4.38704L0.0950683 4.80243L-0.27419 4.5409L-0.643408 4.80243L-0.48958 4.38704L-0.858799 4.12551H-0.412627L-0.27419 3.69473ZM2.24893 3.69473L2.40276 4.12551H2.83354L2.47968 4.38704L2.61815 4.80243L2.24893 4.5409L1.89507 4.80243L2.03354 4.38704L1.66429 4.12551H2.12585L2.24893 3.69473ZM4.78741 3.69473L4.92589 4.12551H5.37202L5.01819 4.38704L5.15663 4.80243L4.78741 4.5409L4.43354 4.80243L4.57202 4.38704L4.2028 4.12551H4.64894L4.78741 3.69473ZM7.32589 3.69473L7.46437 4.12551H7.9105L7.54128 4.38704L7.69515 4.80247L7.32589 4.54094L6.95667 4.80247L7.1105 4.38708L6.74128 4.12555H7.18745L7.32589 3.69473ZM9.84901 3.69473L10.0028 4.12551H10.4182L10.0644 4.38704L10.2028 4.80243L9.83362 4.5409L9.47976 4.80243L9.61823 4.38704L9.24897 4.12551H9.71054L9.84901 3.69473ZM-1.53575 4.77168L-1.41267 5.20243H-0.951104L-1.32036 5.46399L-1.18188 5.87938L-1.5511 5.61782L-1.88958 5.87938L-1.7511 5.46399L-2.12036 5.20243H-1.65876L-1.53575 4.77168ZM0.987373 4.77168L1.12585 5.20243H1.57198L1.21815 5.46399L1.35659 5.87938L0.987373 5.61782L0.633506 5.87938L0.771982 5.46399L0.402764 5.20243H0.848896L0.987373 4.77168ZM3.52585 4.77168L3.66433 5.20243H4.11046L3.74124 5.46399L3.89511 5.87938L3.52585 5.61782L3.15663 5.87938L3.31046 5.46399L2.94124 5.20243H3.38741L3.52585 4.77168ZM6.04897 4.77168L6.2028 5.20243H6.63358L6.27972 5.46399L6.41819 5.87938L6.04897 5.61782L5.69511 5.87938L5.83358 5.46399L5.46433 5.20243H5.92589L6.04897 4.77168ZM8.58745 4.77168L8.72589 5.20243H9.17206L8.81823 5.46399L8.95667 5.87938L8.58745 5.61782L8.23358 5.87938L8.37206 5.46399L8.00284 5.20243H8.44897L8.58745 4.77168ZM11.1259 4.77168L11.2644 5.20243H11.7105L11.3413 5.46399L11.4951 5.87938L11.1259 5.61782L10.7567 5.87938L10.9105 5.46399L10.5413 5.20243H10.9874L11.1259 4.77168ZM-0.27419 5.8486L-0.135713 6.27938H0.310459L-0.058799 6.5409L0.0950683 6.95629L-0.27419 6.69477L-0.643408 6.95629L-0.48958 6.5409L-0.858799 6.27938H-0.412627L-0.27419 5.8486ZM2.24893 5.8486L2.40276 6.27938H2.83354L2.47968 6.5409L2.61815 6.95629L2.24893 6.69477L1.89507 6.95629L2.03354 6.5409L1.66429 6.27938H2.12585L2.24893 5.8486ZM4.78741 5.8486L4.92589 6.27938H5.37202L5.01819 6.5409L5.15663 6.95629L4.78741 6.69477L4.43354 6.95629L4.57202 6.5409L4.2028 6.27938H4.64894L4.78741 5.8486ZM7.32589 5.8486L7.46437 6.27938H7.9105L7.54128 6.5409L7.69515 6.95633L7.32589 6.69481L6.95667 6.95633L7.1105 6.54094L6.74128 6.27942H7.18745L7.32589 5.8486ZM9.84901 5.8486L10.0028 6.27938H10.4182L10.0644 6.5409L10.2028 6.95629L9.83362 6.69477L9.47976 6.95629L9.61823 6.5409L9.24897 6.27938H9.71054L9.84901 5.8486ZM-1.53575 6.92555L-1.41267 7.35629H-0.951104L-1.32036 7.61786L-1.18188 8.03325L-1.5511 7.77169L-1.88958 8.03325L-1.7511 7.61786L-2.12036 7.35629H-1.65876L-1.53575 6.92555ZM0.987373 6.92555L1.12585 7.35629H1.57198L1.21815 7.61786L1.35659 8.03325L0.987373 7.77169L0.633506 8.03325L0.771982 7.61786L0.402764 7.35629H0.848896L0.987373 6.92555ZM3.52585 6.92555L3.66433 7.35629H4.11046L3.74124 7.61786L3.89511 8.03325L3.52585 7.77169L3.15663 8.03325L3.31046 7.61786L2.94124 7.35629H3.38741L3.52585 6.92555ZM6.04897 6.92555L6.2028 7.35629H6.63358L6.27972 7.61786L6.41819 8.03325L6.04897 7.77169L5.69511 8.03325L5.83358 7.61786L5.46433 7.35629H5.92589L6.04897 6.92555ZM8.58745 6.92555L8.72589 7.35629H9.17206L8.81823 7.61786L8.95667 8.03325L8.58745 7.77169L8.23358 8.03325L8.37206 7.61786L8.00284 7.35629H8.44897L8.58745 6.92555ZM11.1259 6.92555L11.2644 7.35629H11.7105L11.3413 7.61786L11.4951 8.03325L11.1259 7.77169L10.7567 8.03325L10.9105 7.61786L10.5413 7.35629H10.9874L11.1259 6.92555ZM-0.27419 8.00251L-0.135713 8.43329H0.310459L-0.058799 8.69481L0.0950683 9.1102L-0.27419 8.84868L-0.643408 9.1102L-0.48958 8.69481L-0.858799 8.43329H-0.412627L-0.27419 8.00251ZM2.24893 8.00251L2.40276 8.43329H2.83354L2.47968 8.69481L2.61815 9.1102L2.24893 8.84868L1.89507 9.1102L2.03354 8.69481L1.66429 8.43329H2.12585L2.24893 8.00251ZM4.78741 8.00251L4.92589 8.43329H5.37202L5.01819 8.69481L5.15663 9.1102L4.78741 8.84868L4.43354 9.1102L4.57202 8.69481L4.2028 8.43329H4.64894L4.78741 8.00251ZM7.32589 8.00251L7.46437 8.43329H7.9105L7.54128 8.69481L7.69515 9.11024L7.32589 8.84872L6.95667 9.11024L7.1105 8.69485L6.74128 8.43333H7.18745L7.32589 8.00251ZM9.84901 8.00251L10.0028 8.43329H10.4182L10.0644 8.69481L10.2028 9.1102L9.83362 8.84868L9.47976 9.1102L9.61823 8.69481L9.24897 8.43329H9.71054L9.84901 8.00251ZM-1.53575 9.07946L-1.41267 9.5102H-0.951104L-1.32036 9.77176L-1.18188 10.1872L-1.5511 9.92559L-1.88958 10.1872L-1.7511 9.77176L-2.12036 9.5102H-1.65876L-1.53575 9.07946ZM0.987373 9.07946L1.12585 9.5102H1.57198L1.21815 9.77176L1.35659 10.1872L0.987373 9.92559L0.633506 10.1872L0.771982 9.77176L0.402764 9.5102H0.848896L0.987373 9.07946ZM3.52585 9.07946L3.66433 9.5102H4.11046L3.74124 9.77176L3.89511 10.1872L3.52585 9.92559L3.15663 10.1872L3.31046 9.77176L2.94124 9.5102H3.38741L3.52585 9.07946ZM6.04897 9.07946L6.2028 9.5102H6.63358L6.27972 9.77176L6.41819 10.1872L6.04897 9.92559L5.69511 10.1872L5.83358 9.77176L5.46433 9.5102H5.92589L6.04897 9.07946ZM8.58745 9.07946L8.72589 9.5102H9.17206L8.81823 9.77176L8.95667 10.1872L8.58745 9.92559L8.23358 10.1872L8.37206 9.77176L8.00284 9.5102H8.44897L8.58745 9.07946ZM11.1259 9.07946L11.2644 9.5102H11.7105L11.3413 9.77176L11.4951 10.1872L11.1259 9.92559L10.7567 10.1872L10.9105 9.77176L10.5413 9.5102H10.9874L11.1259 9.07946Z" fill="white"/>
</g>
<defs>
<clipPath id="clip0_2001_3436">
<rect width="20" height="20" rx="10" fill="white"/>
</clipPath>
</defs>
</svg>
